<?xml version="1.0" encoding="utf-8"?>
<!-- Generator: Adobe Illustrator 23.0.2, SVG Export Plug-In . SVG Version: 6.00 Build 0)  -->
<svg version="1.1" id="Calque_1" xmlns="http://www.w3.org/2000/svg" xmlns:xlink="http://www.w3.org/1999/xlink" x="0px" y="0px"
	 viewBox="0 0 370 150" style="enable-background:new 0 0 370 150;" xml:space="preserve">
<style type="text/css">
	.st0{fill:#FFFFFF;}
</style>
<title>Plan de travail 4</title>
<path class="st0" d="M79.1,104.3c-0.5,0-0.9-0.3-0.9-0.9V49.1c0-0.5,0.3-0.9,0.9-0.9s0.9,0.3,0.9,0.9v54.2
	C80,103.8,79.6,104.2,79.1,104.3"/>
<path class="st0" d="M32.4,49.3c0,0.1,0,0.1,0,0.2h0.1c0.2-0.1,0.4-0.3,0.4-0.3h-0.2L32.6,49c0-0.1,0.1-0.1,0.1-0.2h-0.1l0,0
	C32.6,48.9,32.5,49.2,32.4,49.3L32.4,49.3"/>
<path class="st0" d="M32.8,48.9L32.8,48.9L32.8,48.9v-0.2H33c0.1,0,0.1-0.1,0.2-0.2S33.2,48.6,32.8,48.9c0.1,0.1,0.2,0.1,0.2,0.1
	h0.1l0,0h0.1l0.1,0.1c0.1-0.1,0.1-0.1,0.1-0.3l-0.1-0.1c0.2-0.2,0.2-0.3,0.1-0.5c-0.1-0.1-0.1-0.1,0-0.3c-0.3,0.3-0.4,0.5-0.6,0.9
	C32.7,48.8,32.7,48.9,32.8,48.9"/>
<path class="st0" d="M33.9,56.4c0.2-0.3-0.3-0.7,0.1-0.9v-0.1c0.2,0,0.3,0,0.2-0.5c-0.1-0.3,0.2-0.4,0.2-0.6s0-0.2-0.4-0.4
	c-0.3-0.2-0.6,0-0.8-0.3c-0.2-0.3-0.3-0.4-0.6-0.4c0-0.1-0.1-0.2-0.2-0.2c0-0.2,0-0.2,0-0.2h-0.2c-0.2,0.1-0.2,0.1-0.3-0.2l0,0
	C32,54,32.7,55.4,33.9,56.4L33.9,56.4"/>
<path class="st0" d="M34,47.6c0,0,0.1,0,0.2,0l0,0C34.1,47.6,34.1,47.6,34,47.6l0.1,0.2l0.2-0.2l0,0l0,0c0,0,0.1,0,0.1-0.1l0.1-0.1
	l0.3-0.3l0,0c0.1,0,0.2-0.1,0.3-0.1c0.1-0.1,0.2-0.2,0.3-0.3c0.2,0,0.3-0.1,0.4-0.2l0,0h-0.2c0.1-0.1,0.1-0.1,0.1-0.1l0,0
	c0.1,0.1,0.2,0.1,0.2,0s0-0.2,0-0.2s0-0.1,0.1-0.2s0.1,0,0.1-0.1l0,0c-0.7,0.3-1.4,0.6-1.9,1c0,0.1,0,0.2,0,0.3S34.1,47.6,34,47.6"
	/>
<path class="st0" d="M35.5,47.2c0,0.1,0,0.1,0,0.2c0.2,0.1,0.2,0.1,0.3,0s0.1,0,0.1-0.1l0,0l0.1-0.1l0,0c-0.1-0.1-0.1-0.1-0.1-0.2
	c-0.1,0-0.1,0-0.2,0.1C35.6,47.1,35.6,47.1,35.5,47.2c-0.1-0.1-0.2-0.1-0.2,0S35.4,47.3,35.5,47.2"/>
<path class="st0" d="M39.4,50.3L39.4,50.3L39.4,50.3L39.4,50.3L39.4,50.3h-0.2l0,0C39.3,50.4,39.3,50.4,39.4,50.3"/>
<path class="st0" d="M38.6,50.3L38.6,50.3C38.7,50.3,38.7,50.3,38.6,50.3L38.6,50.3L38.6,50.3C38.7,50.3,38.7,50.3,38.6,50.3
	L38.6,50.3L38.6,50.3C38.7,50.3,38.7,50.3,38.6,50.3L38.6,50.3L38.6,50.3L38.6,50.3L38.6,50.3"/>
<path class="st0" d="M37.8,50.1L37.8,50.1L37.8,50.1L37.8,50.1L37.8,50.1c0.1,0,0.1,0,0.2,0V50l0,0v-0.1l0,0h-0.1l0,0h-0.1l0,0l0,0
	l0,0l0,0h0.1"/>
<path class="st0" d="M37.3,49.8L37.3,49.8L37.3,49.8L37.3,49.8L37.3,49.8L37.3,49.8L37.3,49.8L37.3,49.8L37.3,49.8L37.3,49.8
	L37.3,49.8L37.3,49.8L37.3,49.8L37.3,49.8L37.3,49.8"/>
<path class="st0" d="M37.4,49.6L37.4,49.6v-0.2l0,0l0,0l0,0l0,0C37.4,49.6,37.4,49.6,37.4,49.6C37.5,49.6,37.5,49.6,37.4,49.6"/>
<path class="st0" d="M40.4,54.5L40.4,54.5c-0.2,0.1-0.2,0.2-0.3,0.3s-0.1,0.1-0.2,0.1s-0.1,0-0.1,0.1s0,0,0,0.1s0,0-0.1,0.2
	s-0.1,0.1-0.1,0.2l0,0v0.1l0,0c0,0,0,0,0,0.1s0.1,0.1,0.1,0.1c0.1,0,0.1,0,0.2-0.1l0.1-0.1c0,0,0,0,0-0.1l0.1-0.1
	c0.1-0.1,0.1-0.2,0.2-0.2c0-0.1,0-0.1,0.1-0.2v-0.1l0,0l0,0l0.1-0.2L40.4,54.5L40.4,54.5"/>
<path class="st0" d="M42.6,52.7L42.6,52.7L42.6,52.7L42.6,52.7L42.6,52.7v0.2v0.1l0,0l0.1-0.1l0,0L42.6,52.7
	C42.7,52.8,42.7,52.6,42.6,52.7"/>
<path class="st0" d="M39.7,54c0-0.1,0.1-0.2,0.1-0.2l0,0c0.1,0,0.2-0.1,0.2-0.1c0-0.1,0.1-0.2,0.2-0.2c0.1-0.1,0.2-0.2,0.3-0.3
	s0.1-0.2,0.2-0.3c0-0.1,0.1-0.2,0.1-0.2l0.1-0.2c0,0,0-0.1-0.1-0.1s0,0-0.1,0l-0.4,0.1l-0.1-0.1c0,0,0,0,0-0.1S40,52.4,40,52.3
	s-0.1-0.1-0.1-0.1s-0.1,0-0.1-0.1c0,0,0,0,0-0.1c-0.1-0.2-0.2-0.4-0.3-0.6c0,0,0,0-0.3-0.5c0,0,0.1-0.1,0.2,0
	c0.1,0.1,0.1,0.3,0.2,0.3c0.1,0.1,0.1,0,0.1,0.1s0,0.2,0.1,0.3l0,0c0.2,0.2,0.3,0.4,0.3,0.7c0,0.1,0,0.1,0.1,0.1l0,0l0.1-0.1
	c0,0,0.1,0,0.2,0c0.1,0,0.3-0.1,0.3-0.2l0,0c0.1-0.1,0.2,0,0.3-0.1s0.3-0.3,0.3-0.5s-0.2-0.2-0.2-0.3l0,0l0,0
	c-0.1,0.1-0.2,0.2-0.3,0.2s0-0.2-0.1-0.2l0,0v0.1c-0.1-0.2-0.2-0.3-0.2-0.4c0,0,0.1,0,0.2,0c0,0.1,0.2,0.4,0.4,0.3
	c0.1,0,0.2,0.3,0.3,0.2c0.1,0,0.3,0,0.3,0c0.1,0,0.1,0,0.1,0.2H42c0.1,0.1,0.1,0.1,0.2,0.1s-0.1,0.1-0.1,0.1s0.1,0.2,0.2,0.1
	s0-0.1,0-0.1s0,0,0-0.1c0,0,0,0,0,0.1c0,0.3,0,0.5,0.1,0.8v0.1l0,0v0.1c0,0.1,0,0.2,0,0.3V53l0,0l0,0l0,0l0,0c0,0,0,0,0-0.1
	s0,0,0-0.1c0-0.1,0-0.1,0-0.1s0-0.1,0.1-0.1v-0.1c0-0.1,0-0.2,0.1-0.3l0.3-0.5l0,0c0.1,0,0.1-0.1,0.2-0.1L43,52v0.1l0,0
	c0.1,0.1,0,0.2,0,0.3l0,0l0,0l0,0v-0.1l0,0c0.1,0.1,0,0.2,0,0.3c0,0.1,0,0.2,0,0.3l0,0v0.1c0,0.1,0,0.1-0.1,0.2l0,0l0,0
	c0,0.1,0,0.1,0,0.2c0,0.1,0,0.2,0,0.3c0,0.1,0,0.1,0.1,0.2c0,0,0,0,0-0.1l0,0c0-0.1,0-0.2,0-0.3s0-0.1,0-0.2v-0.2v-0.2l0.1-0.3l0,0
	l0,0c0,0.1,0,0.1,0,0.1l0,0c0,0.1,0,0.1,0,0.2l0,0l0,0l0,0c0,0,0,0,0,0.1s0,0.1,0,0.1l0,0v-0.1l0,0c0-0.3,0.1-0.5,0.1-0.8
	c0-0.1,0-0.2,0-0.3c-0.1-2.3-1.5-4.2-3.5-5.2l0.1,0.1l0,0l-0.1-0.3l0,0l0,0c0,0,0.1,0.1,0.1,0.2c0,0.1,0,0.1,0.1,0.2l0,0h-0.1l0,0
	c0-0.1,0-0.1-0.3-0.4l-0.1-0.1l-0.3-0.1c0,0.1,0.1,0.1,0.1,0.2s0.2,0.1,0.3,0.2l0,0c-0.2-0.1-0.3-0.2-0.5-0.2l0,0
	c0.1,0.1,0.3,0.1,0.2,0.3l0,0c0-0.1,0-0.1-0.1-0.1s-0.1,0.1-0.1,0.1l0,0l0,0c0,0,0,0,0-0.1s-0.1,0-0.1,0l0,0l0,0l0,0l0,0v0.1v-0.1
	l0,0v0.1c-0.1,0-0.1,0-0.2,0s0,0,0-0.1c0,0,0-0.1-0.1-0.1h-0.1c0,0,0,0,0.1,0.1v0.2c0,0,0,0,0.1,0.1s-0.1,0-0.1,0s-0.1,0.1-0.1,0.2
	c0.1,0.1,0.1,0.1,0.1,0.1l0,0L38.4,47c0,0.1,0,0.1,0.1,0.2l0,0c0,0-0.1,0.1-0.2-0.1L38.2,47h-0.1L38,46.9c0.1,0,0.2,0.2,0.3,0.1
	s0.2-0.2,0.1-0.2s-0.1-0.1-0.2-0.1l0,0l-0.3-0.2c0,0,0,0,0-0.1s0,0,0,0l0,0h-0.1h0.1c0-0.1-0.1-0.1-0.2,0v-0.1c-0.1,0-0.1,0-0.1,0
	l0,0l0,0v-0.1l0,0c-0.1,0-0.1,0.1-0.2,0.1s0,0.1-0.1,0l0,0l0,0h-0.1v0.1l0,0h-0.1c0,0,0,0,0,0.1l0,0l0,0c0,0-0.1,0-0.1,0.1l0,0
	c-0.1,0-0.1,0-0.1,0.1l0.2-0.1l-0.1,0.2c0,0-0.1,0.2-0.1,0.3s0,0,0,0l0,0l0,0C37,47,37,47,37,47.1l-0.2,0.1l0,0c0,0,0,0,0,0.1l0,0
	c0,0,0,0,0,0.1s0.1,0.1,0.1,0.1l0,0c0,0,0,0-0.1,0.1s0,0,0.1,0l0,0c-0.1,0.1,0.1,0.1,0.1,0.1c0.1,0,0.2-0.1,0.3-0.2l0.1,0.2
	c0,0.1,0,0.1,0.1,0.2c0,0,0,0,0,0.1l0,0l0,0l0,0l0,0c0,0,0,0,0.1,0l0,0l0,0h0.1l0,0v-0.1c0-0.1,0-0.1,0-0.2c0-0.1,0.1-0.1,0.1-0.2
	c0-0.1-0.1-0.1-0.1-0.1s0,0,0-0.2c0.2-0.2,0.2-0.2,0.2-0.3s0-0.2,0.1-0.2s0.1,0,0.1,0c0,0.1-0.1,0.2-0.1,0.3h-0.1
	c0,0.3,0.1,0.3,0.2,0.3l0.3-0.1l0,0h0.1l0,0h-0.1l0,0c-0.1,0-0.2,0-0.3,0c0,0,0,0,0,0.1c0,0.1-0.1,0-0.1,0v0.1l0.2-0.1l0,0
	c0,0.1,0,0.1,0,0.2l0,0c0,0,0-0.1-0.1-0.1s0,0-0.1,0.1l0,0c0,0.1,0,0.1,0,0.2s0,0-0.1,0s-0.1,0-0.2,0c-0.1,0-0.2,0.1-0.2,0.1
	s0,0-0.1-0.1c-0.1,0-0.1,0-0.2,0.1l0,0c-0.1,0-0.1,0-0.1-0.1l0,0c0.2,0.1,0.2,0.1,0.2,0s0,0,0-0.1s-0.1,0-0.1,0l0,0l0,0
	c-0.1,0-0.1-0.1-0.1-0.1l0,0h-0.1l0,0c0,0,0,0,0-0.1l0,0c0,0,0,0-0.1,0s0,0-0.1,0s0,0,0,0l0,0l0,0l0,0l0,0c0,0,0,0,0,0.1H37
	c0,0,0,0,0,0.1l0,0l0,0c0,0,0,0-0.1,0s-0.2,0-0.3,0.1s-0.2,0.3-0.3,0.3c0,0,0,0,0,0.1l-0.1-0.1c0,0,0,0,0,0.1s-0.2,0-0.3,0
	s0,0,0,0.1l0,0c0.1,0,0.1,0.1,0.2,0c0,0.1,0,0.1,0.1,0.2c0,0.3,0,0.3-0.2,0.3c-0.4,0-0.4,0-0.4,0c0,0.1,0,0.1,0,0.2
	c0,0.1-0.1,0.2-0.1,0.3s0.1,0.2,0,0.2c-0.1,0,0.1,0,0.2,0c0.1,0,0.1,0.1,0.1,0.1c0.1,0,0.3-0.1,0.3-0.1c0.1,0,0.1,0,0.1-0.2l0,0
	c0,0,0,0,0-0.1s0.1-0.1,0.1-0.2s0.1,0,0.1-0.1s0-0.1,0-0.1s0-0.1,0.2-0.1l0.1,0.1c0.1,0,0.1-0.2,0.2-0.2s0.1,0,0.2,0.2
	c0.1,0.1,0.2,0.2,0.3,0.3c0,0.1,0,0.1,0,0.1l0,0c0.1,0.1,0,0.2,0,0.3s0.1-0.2,0.1-0.2V49c0,0,0.1,0,0.1,0.1l0,0c0,0,0,0,0-0.1
	c0.3,0.1,0.3,0.4,0.3,0.7l0,0c-0.2-0.1-0.3-0.1-0.3-0.3l0,0c0-0.1,0.1-0.1,0.1-0.1v0.1l0,0c0.1,0,0.1,0.2,0.2,0.2l0,0l0,0
	c0,0.1,0.1,0.1,0.2,0.1s0,0.2,0.1,0.2l0,0c0.1,0.2,0.1,0.2,0.2,0.2c0,0.2,0.1,0.2,0.1,0.2s0,0,0,0.1l0,0v-0.1h0.1h-0.1l0,0h0.1
	c0,0,0,0,0-0.1l0.1,0.1c0-0.2-0.2-0.2-0.2-0.3s0.1,0,0.1,0h0.1l0,0l0,0c0.1,0,0.2,0,0.2,0l0,0l0.2-0.1c0-0.1-0.1-0.1-0.1-0.2
	c0-0.1,0.1-0.2,0.1-0.3l0,0v-0.1c0.1,0,0.1-0.1,0.1-0.1H39l0,0h0.1l0,0L39,49.4h0.1c0,0.1,0.1,0.1,0.2,0l0,0h-0.2
	c-0.1-0.2,0.2-0.2,0.3-0.2c0,0,0,0.1-0.1,0.1l0,0l0,0v0.1l0,0l0,0l0,0l0,0h0.1c0.3,0.2,0.3,0.2,0.3,0.3s0,0,0,0l0,0
	c-0.1,0.1-0.1,0.1-0.2,0.1h-0.1l-0.3-0.2c-0.2,0-0.2,0-0.2,0.1s-0.2,0-0.2,0l0,0l0,0l0,0l0,0c0,0,0,0-0.1,0.1l0,0l0,0c0,0,0,0,0,0.1
	c0.1,0.1,0.1,0.1,0.2,0.2h0.1l0,0H39c0,0,0,0,0-0.1s0.1,0.1,0.2,0.1s0.1,0,0.1-0.1h0.1l0,0c-0.1,0.2,0,0.3-0.1,0.5s-0.3,0-0.3,0.1
	c-0.2,0-0.3-0.1-0.5-0.2c0,0-0.3-0.1-0.2,0.1s0,0.2-0.1,0.2l-0.2-0.4c0,0,0-0.1-0.3-0.2c-0.1,0-0.2,0-0.2,0s0.1-0.1,0.1-0.2
	c0-0.1,0-0.2,0-0.2l0,0l0,0c0,0-0.4,0-0.6,0s-0.4,0.3-0.7,0.1h-0.1v0.1c-0.1,0.1-0.2,0.1-0.3,0.2c0,0,0,0,0,0.1
	c-0.1,0.1-0.1,0.3-0.2,0.3c-0.1,0.1-0.3,0.2-0.3,0.3c0,0.1-0.1,0.1-0.1,0.2c0,0.1-0.1,0.1-0.2,0.2s0.1,0.2,0.1,0.3s0.1,0.3,0,0.4
	s-0.1,0-0.1,0.1l0.1,0.1l0,0c0,0.1,0,0.1,0,0.2s0.2,0.1,0.2,0.2s0.1,0.2,0.2,0.3l0.3,0.3h0.1c0.1,0,0.2-0.1,0.3-0.1s0.2,0,0.3,0h0.1
	c0.1-0.1,0.2-0.1,0.3-0.1s0.1,0.2,0.2,0.2s0.2-0.1,0.3,0l0.1,0.1c-0.1,0.1-0.1,0.2-0.1,0.3l0,0c0,0.1,0.1,0.2,0.2,0.3l0.2,0.3v0.3
	c0,0.1-0.2,0.2-0.2,0.3s0,0.1,0,0.2c0,0.1,0.2,0.2,0.2,0.3s0,0.3,0,0.3c0,0.1,0.1,0.2,0.1,0.2c0.1,0.1,0.1,0.2,0.1,0.3l0,0
	c0,0,0,0.1,0,0.2l0,0l0,0c0.3,0,0.4,0,0.6-0.2c0.1-0.1,0.2-0.2,0.3-0.3l0.3-0.4c0-0.2,0-0.2,0.3-0.4c0.3,0,0.3,0,0.3-0.1l0,0
	C39.7,54.1,39.7,54.1,39.7,54L39.7,54L39.7,54C39.7,54,39.7,54,39.7,54c-0.1-0.3-0.1-0.3-0.1-0.3 M38.6,47.1L38.6,47.1L38.6,47.1
	L38.6,47.1L38.6,47.1L38.6,47.1L38.6,47.1L38.6,47.1L38.6,47.1L38.6,47.1L38.6,47.1L38.6,47.1L38.6,47.1
	C38.7,47,38.7,47.1,38.6,47.1L38.6,47.1 M38.9,47L38.9,47L38.9,47L38.9,47L38.9,47L38.9,47L38.9,47L38.9,47L38.9,47L38.9,47L38.9,47
	L38.9,47C38.8,47,38.9,47,38.9,47C39,47.1,39,47,38.9,47c0.1,0.2,0.1,0.1,0.1,0.2l0,0 M41,48.8L41,48.8L41,48.8L41,48.8L41,48.8
	L41,48.8L41,48.8L41,48.8L41,48.8L41,48.8c0,0.2,0,0.2,0,0.2l0,0h-0.1C40.9,48.9,40.9,48.9,41,48.8C40.9,48.8,40.9,48.9,41,48.8
	 M40.2,48.9L40.2,48.9C40.3,48.8,40.3,48.8,40.2,48.9l0.2-0.2h0.1c0,0,0.1,0.2,0,0.2s-0.1,0-0.1,0s0.1,0.1,0,0.1l0,0
	c0.1,0.2,0.1,0.2,0.1,0.2l0.1,0.1v0.1c0,0,0,0,0,0.1l0,0v0.1l0,0l0,0l0,0l0,0c0,0,0.1,0.2,0.2,0.3h-0.2l-0.2-0.1
	c-0.1-0.1-0.1-0.2,0-0.3l0,0c0,0,0,0-0.1,0l0,0c0,0,0-0.1-0.1-0.1c0,0-0.1,0-0.1-0.1c0,0,0-0.1-0.1-0.2c-0.1-0.1-0.1,0-0.1-0.1
	c0,0,0-0.1,0-0.2"/>
<path class="st0" d="M36,48.3L36,48.3L36,48.3L36,48.3L36,48.3L36,48.3L36,48.3c-0.1,0.1-0.1,0.1-0.1,0.2l0,0H36
	C36,48.5,36.1,48.5,36,48.3l0.2,0.1l0,0l0,0l0,0v-0.1l0,0l0,0v-0.1C36.2,48.3,36.2,48.3,36,48.3C36,48.3,36.1,48.3,36,48.3
	C35.9,48.3,36.1,48.3,36,48.3C36.1,48.3,36.1,48.3,36,48.3L36,48.3L36,48.3L36,48.3L36,48.3"/>
<path class="st0" d="M36.2,48L36.2,48C36.3,48,36.3,48.1,36.2,48L36.2,48c0.1,0.2,0.1,0.2,0.1,0.2l0,0l0,0c0,0,0-0.1,0.1,0
	s0,0.1,0,0.1h0.1c0,0,0,0,0,0.1l0,0c0,0,0,0.1-0.1,0.1s-0.1,0-0.1,0l0,0l0,0c0,0-0.1,0-0.1,0.1s0.1,0,0.1,0s0,0,0.1,0l0,0
	c0,0,0,0.1-0.1,0.1s-0.2,0.1-0.2,0.1l0,0c0,0,0,0,0.1-0.1s0,0,0.1,0l0,0h0.1h0.1c0,0,0,0,0-0.1s0.1,0,0.1,0h0.1l0,0c0,0,0,0-0.1,0
	c0.2-0.2,0-0.2,0-0.2l0,0l0,0v-0.1l0,0c0,0,0,0-0.1-0.1v-0.1c0-0.1,0-0.1,0-0.1l0,0c0-0.1,0.1-0.1,0.1-0.2s-0.1,0-0.2,0
	s0.1-0.1,0.1-0.2s0,0.1,0,0.1h-0.1v0.1c0,0,0,0.1-0.1,0s0-0.1,0-0.1s0,0-0.1,0S36.2,47.9,36.2,48L36.2,48"/>
<path class="st0" d="M43.4,54.1c0,0,0-0.1,0.1-0.2c0-0.1,0-0.2,0-0.3v-0.1l0,0c0,0,0-0.1-0.1-0.2l0,0c0,0,0-0.2-0.1-0.3s0,0,0,0
	v-0.1L43.2,53l0.1,0.2v0.2v0.1v0.1v0.1v0.1C43.3,53.8,43.3,53.9,43.4,54.1L43.4,54.1L43.4,54.1"/>
<path class="st0" d="M37.8,58c-3.4,0-6.1-2.7-6.1-6.1s2.7-6.1,6.1-6.1s6.1,2.7,6.1,6.1S41.1,58,37.8,58 M37.8,45.9c-3.3,0-6,2.7-6,6
	s2.7,6,6,6s6-2.7,6-6l0,0C43.7,48.6,41,45.9,37.8,45.9L37.8,45.9"/>
<path class="st0" d="M31.8,94.3c-0.2-0.3-0.2-0.5,0-0.8c0.8-0.1,1.6-0.2,2.4-0.3c1.3-0.3,1.6-1,1.6-2.3c0.1-1.3,0.2-10.6,0.2-15.1
	c0-4.1,0-8.2-0.1-10.7c-0.2-1.3-0.1-2.4-1.3-2.8c-1-0.2-1.9-0.3-2.9-0.5c-0.2-0.1-0.1-0.7,0.1-0.8h11.4c0.2,0.3,0.2,0.5,0.1,0.8
	c-0.8,0.1-1.7,0.2-2.2,0.3c-1.2,0.3-1.4,1.1-1.5,2.8c-0.1,2.3-0.2,7.6-0.2,12.3c0,5,0.1,11,0.1,12.8s0.3,2.6,1.6,2.9
	c0.9,0.3,1.8,0.4,2.8,0.5c0.2,0.2,0,0.7-0.1,0.8L31.8,94.3z"/>
<path class="st0" d="M72,94.3c-1.9,0.1-5.6-0.2-7.3-0.9c-1-0.4-1.8-1.1-2.4-2c-2.1-2.2-5.8-8.6-8-11.4c-0.4-0.7-0.9-0.9-1.2-0.9
	c-0.6,0-3.7,0-4.7,0v-1.5c1.8,0.1,6.1,0.2,7.2-0.3c1.8-0.6,4.3-2.5,4.3-7.2c0-1-0.2-2.1-0.4-3c-0.7-3.3-4.3-6.1-12.3-6.1
	c1.6,0,6.6,0,7.1,0c6.1,0,9,3.7,9,8.1c0,4.8-3.2,7.3-6.2,8.6C57,78,57,78.1,57,78.1c2.1,3.3,6.6,9.9,9,12.3c2.4,2.4,3.5,2.9,6.1,3
	C72.1,93.8,72.1,94.1,72,94.3"/>
<path class="st0" d="M7.5,61.1c-0.1,0.1-0.2,0.7,0,0.8c0.9,0.1,1.8,0.3,2.7,0.5c1.2,0.4,1.2,1.5,1.2,2.9c0.1,2.8-0.1,17,0.3,20.1
	c0.8,6.5,4.9,9.1,12.5,9.1c0.7,0,1.4-0.1,2.1-0.1c-6.1-0.2-11-4.2-11.3-10.2c-0.1-0.5-0.1-1-0.2-1.6c-0.1-2.9-0.2-12.7,0-17.1
	c0.1-2.3,0.3-2.7,1.3-3c0.8-0.2,1.5-0.3,2.3-0.5c0.1-0.3,0.1-0.5,0-0.8L7.5,61.1z"/>
<path class="st0" d="M37.8,45.9c3.3,0,6,2.7,6,6c0,3.3-2.7,6-6,6c-3.3,0-6-2.7-6-6c0-1.6,0.6-3,1.6-4.2c0.6-0.6,1.3-1,2-1.3
	C36.2,46.2,37,46,37.8,45.9 M37.8,45.8c-3.4,0-6.1,2.8-6.1,6.1s2.8,6.1,6.1,6.1c3.4,0,6.1-2.8,6.1-6.1c0-1.6-0.7-3.2-1.8-4.4
	C40.9,46.4,39.4,45.8,37.8,45.8"/>
<g>
	<path class="st0" d="M88.4,52.6h8.8v2.3H91v2.4h5.5v2.3H91V62h6.3v2.3h-8.9V52.6z"/>
	<path class="st0" d="M98.8,59.9L98.8,59.9c0-2.6,2-4.7,4.7-4.7c1.7,0,2.7,0.6,3.6,1.5l-1.6,1.7c-0.6-0.6-1.1-1-2-1
		c-1.3,0-2.2,1.1-2.2,2.4v0c0,1.4,0.9,2.5,2.3,2.5c0.9,0,1.4-0.4,2.1-1l1.5,1.5c-0.9,1-1.9,1.6-3.7,1.6
		C100.7,64.5,98.8,62.4,98.8,59.9z"/>
	<path class="st0" d="M108.1,59.9L108.1,59.9c0-2.6,2.1-4.7,4.9-4.7c2.8,0,4.8,2.1,4.8,4.6v0c0,2.6-2.1,4.7-4.9,4.7
		C110.1,64.5,108.1,62.5,108.1,59.9z M115.2,59.9L115.2,59.9c0-1.4-1-2.5-2.4-2.5c-1.5,0-2.3,1.1-2.3,2.4v0c0,1.3,1,2.5,2.4,2.5
		C114.4,62.3,115.2,61.2,115.2,59.9z"/>
	<path class="st0" d="M119.7,52.1h2.5v12.2h-2.5V52.1z"/>
	<path class="st0" d="M124.2,59.9L124.2,59.9c0-2.6,1.8-4.7,4.4-4.7c3,0,4.4,2.3,4.4,4.9c0,0.2,0,0.4,0,0.7h-6.2
		c0.3,1.2,1.1,1.8,2.2,1.8c0.9,0,1.5-0.3,2.2-0.9l1.5,1.3c-0.8,1-2,1.7-3.7,1.7C126.2,64.5,124.2,62.6,124.2,59.9z M130.5,59.1
		c-0.2-1.1-0.8-1.9-1.9-1.9c-1.1,0-1.7,0.8-1.9,1.9H130.5z"/>
	<path class="st0" d="M139.3,62.6l1.5-1.8c1.1,0.9,2.2,1.4,3.5,1.4c1.1,0,1.7-0.4,1.7-1.1v0c0-0.7-0.4-1-2.4-1.5
		c-2.4-0.6-3.9-1.3-3.9-3.6v0c0-2.1,1.7-3.5,4.1-3.5c1.7,0,3.2,0.5,4.3,1.5l-1.3,1.9c-1-0.7-2.1-1.2-3-1.2c-1,0-1.5,0.5-1.5,1v0
		c0,0.8,0.5,1,2.5,1.5c2.4,0.6,3.7,1.5,3.7,3.5v0c0,2.3-1.8,3.6-4.3,3.6C142.5,64.5,140.7,63.9,139.3,62.6z"/>
	<path class="st0" d="M150.5,61.2v-5.8h2.5v5c0,1.2,0.6,1.8,1.5,1.8c1,0,1.6-0.6,1.6-1.8v-5h2.5v8.9h-2.5V63
		c-0.6,0.8-1.3,1.4-2.6,1.4C151.6,64.5,150.5,63.2,150.5,61.2z"/>
	<path class="st0" d="M161,55.4h2.5v1.3c0.6-0.8,1.5-1.5,2.8-1.5c2.1,0,4.1,1.6,4.1,4.6v0c0,3-2,4.6-4.1,4.6c-1.4,0-2.2-0.6-2.8-1.3
		V67H161V55.4z M167.8,59.8L167.8,59.8c0-1.5-1-2.5-2.2-2.5c-1.2,0-2.2,1-2.2,2.5v0c0,1.5,1,2.5,2.2,2.5
		C166.8,62.3,167.8,61.4,167.8,59.8z"/>
	<path class="st0" d="M171.8,59.9L171.8,59.9c0-2.6,1.8-4.7,4.4-4.7c3,0,4.4,2.3,4.4,4.9c0,0.2,0,0.4,0,0.7h-6.2
		c0.3,1.2,1.1,1.8,2.2,1.8c0.9,0,1.5-0.3,2.2-0.9l1.5,1.3c-0.8,1-2,1.7-3.7,1.7C173.8,64.5,171.8,62.6,171.8,59.9z M178.1,59.1
		c-0.2-1.1-0.8-1.9-1.9-1.9c-1.1,0-1.7,0.8-1.9,1.9H178.1z M177,51.4l2.2,1l-2.2,2h-1.9L177,51.4z"/>
	<path class="st0" d="M182.5,55.4h2.5v1.8c0.5-1.2,1.4-2,2.9-2v2.7h-0.1c-1.7,0-2.7,1-2.7,3.2v3.3h-2.5V55.4z"/>
	<path class="st0" d="M189.5,52.1h2.7v2.3h-2.7V52.1z M189.6,55.4h2.5v8.9h-2.5V55.4z"/>
	<path class="st0" d="M194,59.9L194,59.9c0-2.6,1.8-4.7,4.4-4.7c3,0,4.4,2.3,4.4,4.9c0,0.2,0,0.4,0,0.7h-6.2
		c0.3,1.2,1.1,1.8,2.2,1.8c0.9,0,1.5-0.3,2.2-0.9l1.5,1.3c-0.8,1-2,1.7-3.7,1.7C196,64.5,194,62.6,194,59.9z M200.4,59.1
		c-0.2-1.1-0.8-1.9-1.9-1.9c-1.1,0-1.7,0.8-1.9,1.9H200.4z"/>
	<path class="st0" d="M204.6,61.2v-5.8h2.5v5c0,1.2,0.6,1.8,1.5,1.8c1,0,1.6-0.6,1.6-1.8v-5h2.5v8.9h-2.5V63
		c-0.6,0.8-1.3,1.4-2.6,1.4C205.8,64.5,204.6,63.2,204.6,61.2z"/>
	<path class="st0" d="M215.1,55.4h2.5v1.8c0.5-1.2,1.4-2,2.9-2v2.7h-0.1c-1.7,0-2.7,1-2.7,3.2v3.3h-2.5V55.4z"/>
	<path class="st0" d="M221.4,59.9L221.4,59.9c0-2.6,1.8-4.7,4.4-4.7c3,0,4.4,2.3,4.4,4.9c0,0.2,0,0.4,0,0.7h-6.2
		c0.3,1.2,1.1,1.8,2.2,1.8c0.9,0,1.5-0.3,2.2-0.9l1.5,1.3c-0.8,1-2,1.7-3.7,1.7C223.4,64.5,221.4,62.6,221.4,59.9z M227.7,59.1
		c-0.2-1.1-0.8-1.9-1.9-1.9c-1.1,0-1.7,0.8-1.9,1.9H227.7z"/>
</g>
<g>
	<path class="st0" d="M87.8,79.9L87.8,79.9c0-3,2-4.7,4.1-4.7c1.4,0,2.2,0.6,2.8,1.3v-4.4h2.5v12.2h-2.5v-1.3
		c-0.6,0.8-1.5,1.5-2.8,1.5C89.8,84.5,87.8,82.9,87.8,79.9z M94.7,79.9L94.7,79.9c0-1.5-1-2.5-2.2-2.5c-1.2,0-2.2,1-2.2,2.5v0
		c0,1.5,1,2.5,2.2,2.5C93.7,82.4,94.7,81.4,94.7,79.9z"/>
	<path class="st0" d="M98.8,77c1.2-0.1,1.7-0.7,1.6-1.7h-1v-2.7h2.7v2.3c0,2.2-1.1,3.1-3.1,3.1L98.8,77z"/>
	<path class="st0" d="M104.6,72.7h2.6v11.7h-2.6V72.7z"/>
	<path class="st0" d="M109.8,75.4h2.5v1.3c0.6-0.8,1.3-1.4,2.6-1.4c1.9,0,3,1.3,3,3.3v5.8h-2.5v-5c0-1.2-0.6-1.8-1.5-1.8
		c-1,0-1.6,0.6-1.6,1.8v5h-2.5V75.4z"/>
	<path class="st0" d="M120.7,77.6h-1.1v-2.1h1.1v-0.6c0-1,0.3-1.7,0.7-2.2s1.2-0.7,2.1-0.7c0.8,0,1.3,0.1,1.8,0.3v2.1
		c-0.4-0.1-0.7-0.2-1.2-0.2c-0.6,0-0.9,0.3-0.9,1v0.4h2.1v2.1h-2v6.8h-2.5V77.6z"/>
	<path class="st0" d="M126,79.9L126,79.9c0-2.6,2.1-4.7,4.9-4.7c2.8,0,4.8,2.1,4.8,4.6v0c0,2.6-2.1,4.7-4.9,4.7
		C128.1,84.5,126,82.5,126,79.9z M133.2,79.9L133.2,79.9c0-1.4-1-2.5-2.4-2.5c-1.5,0-2.3,1.1-2.3,2.4v0c0,1.3,1,2.5,2.4,2.5
		C132.3,82.4,133.2,81.2,133.2,79.9z"/>
	<path class="st0" d="M137.5,75.4h2.5v1.8c0.5-1.2,1.4-2,2.9-2v2.7h-0.1c-1.7,0-2.7,1-2.7,3.2v3.3h-2.5V75.4z"/>
	<path class="st0" d="M144.5,75.4h2.5v1.3c0.6-0.8,1.4-1.4,2.6-1.4c1.2,0,2.1,0.5,2.5,1.4c0.8-0.9,1.7-1.4,2.9-1.4
		c1.9,0,3,1.1,3,3.3v5.8h-2.5v-5c0-1.2-0.5-1.8-1.5-1.8s-1.5,0.6-1.5,1.8v5h-2.5v-5c0-1.2-0.5-1.8-1.5-1.8c-1,0-1.5,0.6-1.5,1.8v5
		h-2.5V75.4z"/>
	<path class="st0" d="M159.9,81.8L159.9,81.8c0-2,1.5-2.9,3.6-2.9c0.9,0,1.6,0.2,2.2,0.4v-0.2c0-1.1-0.7-1.6-1.9-1.6
		c-1,0-1.7,0.2-2.5,0.5l-0.6-1.9c1-0.4,2-0.7,3.5-0.7c1.4,0,2.4,0.4,3,1c0.7,0.7,1,1.7,1,2.9v5.2h-2.5v-1c-0.6,0.7-1.5,1.1-2.7,1.1
		C161.2,84.5,159.9,83.5,159.9,81.8z M165.7,81.2v-0.5c-0.4-0.2-1-0.3-1.6-0.3c-1.1,0-1.8,0.4-1.8,1.2v0c0,0.7,0.6,1.1,1.4,1.1
		C164.9,82.8,165.7,82.1,165.7,81.2z"/>
	<path class="st0" d="M170.6,81.8v-4.2h-1.1v-2.2h1.1v-2.3h2.5v2.3h2.1v2.2h-2.1v3.8c0,0.6,0.3,0.9,0.8,0.9c0.5,0,0.9-0.1,1.3-0.3v2
		c-0.5,0.3-1.2,0.5-2,0.5C171.7,84.5,170.6,83.9,170.6,81.8z"/>
	<path class="st0" d="M177.2,72.2h2.7v2.3h-2.7V72.2z M177.2,75.4h2.5v8.9h-2.5V75.4z"/>
	<path class="st0" d="M188.6,83.1c-0.6,0.8-1.5,1.5-2.8,1.5c-2.1,0-4.1-1.6-4.1-4.6v0c0-3,2-4.6,4.1-4.6c1.4,0,2.2,0.6,2.8,1.3v-1.2
		h2.5V87h-2.5V83.1z M188.6,79.9L188.6,79.9c0-1.5-1-2.5-2.2-2.5c-1.2,0-2.2,1-2.2,2.5v0c0,1.5,1,2.5,2.2,2.5
		C187.7,82.4,188.6,81.4,188.6,79.9z"/>
	<path class="st0" d="M193.4,81.2v-5.8h2.5v5c0,1.2,0.6,1.8,1.5,1.8c1,0,1.6-0.6,1.6-1.8v-5h2.5v8.9H199v-1.3
		c-0.6,0.8-1.3,1.4-2.6,1.4C194.5,84.5,193.4,83.2,193.4,81.2z"/>
	<path class="st0" d="M203.4,79.9L203.4,79.9c0-2.6,1.8-4.7,4.4-4.7c3,0,4.4,2.3,4.4,4.9c0,0.2,0,0.4,0,0.7h-6.2
		c0.3,1.2,1.1,1.8,2.2,1.8c0.9,0,1.5-0.3,2.2-0.9l1.5,1.3c-0.8,1-2,1.7-3.7,1.7C205.4,84.5,203.4,82.7,203.4,79.9z M209.7,79.2
		c-0.2-1.1-0.8-1.9-1.9-1.9c-1.1,0-1.7,0.8-1.9,1.9H209.7z"/>
	<path class="st0" d="M218.6,79.9L218.6,79.9c0-2.6,1.8-4.7,4.4-4.7c3,0,4.4,2.3,4.4,4.9c0,0.2,0,0.4,0,0.7h-6.2
		c0.3,1.2,1.1,1.8,2.2,1.8c0.9,0,1.5-0.3,2.2-0.9l1.5,1.3c-0.8,1-2,1.7-3.7,1.7C220.6,84.5,218.6,82.7,218.6,79.9z M224.9,79.2
		c-0.2-1.1-0.8-1.9-1.9-1.9c-1.1,0-1.7,0.8-1.9,1.9H224.9z"/>
	<path class="st0" d="M229.7,81.8v-4.2h-1.1v-2.2h1.1v-2.3h2.5v2.3h2.1v2.2h-2.1v3.8c0,0.6,0.3,0.9,0.8,0.9c0.5,0,0.9-0.1,1.3-0.3v2
		c-0.5,0.3-1.2,0.5-2,0.5C230.8,84.5,229.7,83.9,229.7,81.8z"/>
	<path class="st0" d="M240.8,79.9L240.8,79.9c0-3,2-4.7,4.1-4.7c1.4,0,2.2,0.6,2.8,1.3v-4.4h2.5v12.2h-2.5v-1.3
		c-0.6,0.8-1.5,1.5-2.8,1.5C242.8,84.5,240.8,82.9,240.8,79.9z M247.7,79.9L247.7,79.9c0-1.5-1-2.5-2.2-2.5c-1.2,0-2.2,1-2.2,2.5v0
		c0,1.5,1,2.5,2.2,2.5C246.7,82.4,247.7,81.4,247.7,79.9z"/>
	<path class="st0" d="M252.4,81.2v-5.8h2.5v5c0,1.2,0.6,1.8,1.5,1.8c1,0,1.6-0.6,1.6-1.8v-5h2.5v8.9h-2.5v-1.3
		c-0.6,0.8-1.3,1.4-2.6,1.4C253.6,84.5,252.4,83.2,252.4,81.2z"/>
	<path class="st0" d="M268.2,72.7h2.4l5.5,7.2v-7.2h2.5v11.7h-2.2l-5.7-7.4v7.4h-2.5V72.7z"/>
	<path class="st0" d="M281,81.2v-5.8h2.5v5c0,1.2,0.6,1.8,1.5,1.8c1,0,1.6-0.6,1.6-1.8v-5h2.5v8.9h-2.5v-1.3
		c-0.6,0.8-1.3,1.4-2.6,1.4C282.2,84.5,281,83.2,281,81.2z"/>
	<path class="st0" d="M291.5,75.4h2.5v1.3c0.6-0.8,1.4-1.4,2.6-1.4c1.2,0,2.1,0.5,2.5,1.4c0.8-0.9,1.7-1.4,2.9-1.4
		c1.9,0,3,1.1,3,3.3v5.8h-2.5v-5c0-1.2-0.5-1.8-1.5-1.8c-1,0-1.5,0.6-1.5,1.8v5h-2.5v-5c0-1.2-0.5-1.8-1.5-1.8c-1,0-1.5,0.6-1.5,1.8
		v5h-2.5V75.4z"/>
	<path class="st0" d="M306.9,79.9L306.9,79.9c0-2.6,1.8-4.7,4.4-4.7c3,0,4.4,2.3,4.4,4.9c0,0.2,0,0.4,0,0.7h-6.2
		c0.3,1.2,1.1,1.8,2.2,1.8c0.9,0,1.5-0.3,2.2-0.9l1.5,1.3c-0.8,1-2,1.7-3.7,1.7C308.9,84.5,306.9,82.7,306.9,79.9z M313.2,79.2
		c-0.2-1.1-0.8-1.9-1.9-1.9c-1.1,0-1.7,0.8-1.9,1.9H313.2z M312.2,71.5l2.2,1l-2.2,2h-1.9L312.2,71.5z"/>
	<path class="st0" d="M317.6,75.4h2.5v1.8c0.5-1.2,1.4-2,2.9-2v2.7h-0.1c-1.7,0-2.7,1-2.7,3.2v3.3h-2.5V75.4z"/>
	<path class="st0" d="M324.6,72.2h2.7v2.3h-2.7V72.2z M324.7,75.4h2.5v8.9h-2.5V75.4z"/>
	<path class="st0" d="M336.1,83.1c-0.6,0.8-1.5,1.5-2.8,1.5c-2.1,0-4.1-1.6-4.1-4.6v0c0-3,2-4.6,4.1-4.6c1.4,0,2.2,0.6,2.8,1.3v-1.2
		h2.5V87h-2.5V83.1z M336.1,79.9L336.1,79.9c0-1.5-1-2.5-2.2-2.5c-1.2,0-2.2,1-2.2,2.5v0c0,1.5,1,2.5,2.2,2.5
		C335.1,82.4,336.1,81.4,336.1,79.9z"/>
	<path class="st0" d="M340.8,81.2v-5.8h2.5v5c0,1.2,0.6,1.8,1.5,1.8c1,0,1.6-0.6,1.6-1.8v-5h2.5v8.9h-2.5v-1.3
		c-0.6,0.8-1.3,1.4-2.6,1.4C341.9,84.5,340.8,83.2,340.8,81.2z"/>
	<path class="st0" d="M350.9,79.9L350.9,79.9c0-2.6,1.8-4.7,4.4-4.7c3,0,4.4,2.3,4.4,4.9c0,0.2,0,0.4,0,0.7h-6.2
		c0.3,1.2,1.1,1.8,2.2,1.8c0.9,0,1.5-0.3,2.2-0.9l1.5,1.3c-0.8,1-2,1.7-3.7,1.7C352.9,84.5,350.9,82.7,350.9,79.9z M357.2,79.2
		c-0.2-1.1-0.8-1.9-1.9-1.9c-1.1,0-1.7,0.8-1.9,1.9H357.2z"/>
</g>
<g>
	<path class="st0" d="M88.4,96.9L88.4,96.9c0-2.2,1.7-4,4.1-4c1.5,0,2.3,0.5,3.1,1.2l-1.1,1.3c-0.6-0.5-1.2-0.9-2-0.9
		c-1.3,0-2.3,1.1-2.3,2.4v0c0,1.3,0.9,2.4,2.3,2.4c0.9,0,1.4-0.4,2-0.9l1.1,1.1c-0.8,0.9-1.7,1.4-3.2,1.4
		C90.1,100.9,88.4,99.1,88.4,96.9z"/>
	<path class="st0" d="M96.4,96.9L96.4,96.9c0-2.2,1.7-4,4.1-4s4.1,1.8,4.1,4v0c0,2.2-1.7,4-4.1,4C98.1,100.9,96.4,99.1,96.4,96.9z
		 M102.8,96.9L102.8,96.9c0-1.4-1-2.5-2.4-2.5s-2.3,1.1-2.3,2.4v0c0,1.3,1,2.4,2.4,2.4S102.8,98.2,102.8,96.9z"/>
	<path class="st0" d="M106.2,93h1.7v6.2h3.9v1.6h-5.6V93z"/>
	<path class="st0" d="M113,93h1.7v6.2h3.9v1.6H113V93z"/>
	<path class="st0" d="M119.9,93h5.9v1.5h-4.2v1.6h3.7v1.5h-3.7v1.6h4.2v1.5h-5.9V93z"/>
	<path class="st0" d="M127,96.9L127,96.9c0-2.2,1.7-4,4.1-4c1.4,0,2.2,0.4,3.1,1.1l-1.1,1.3c-0.6-0.5-1.1-0.8-2-0.8
		c-1.2,0-2.2,1.1-2.2,2.4v0c0,1.4,1,2.5,2.4,2.5c0.6,0,1.2-0.2,1.6-0.5v-1.1h-1.7v-1.5h3.4v3.4c-0.8,0.7-1.9,1.2-3.3,1.2
		C128.7,100.9,127,99.2,127,96.9z"/>
	<path class="st0" d="M136.1,93h5.9v1.5h-4.2v1.6h3.7v1.5h-3.7v1.6h4.2v1.5h-5.9V93z"/>
	<path class="st0" d="M146.5,96.9L146.5,96.9c0-2.2,1.7-4,4.1-4s4.1,1.8,4.1,4v0c0,2.2-1.7,4-4.1,4S146.5,99.1,146.5,96.9z
		 M153,96.9L153,96.9c0-1.4-1-2.5-2.4-2.5s-2.3,1.1-2.3,2.4v0c0,1.3,1,2.4,2.4,2.4S153,98.2,153,96.9z"/>
	<path class="st0" d="M156.3,93h5.9v1.6h-4.2v1.7h3.7v1.6h-3.7v3h-1.7V93z"/>
	<path class="st0" d="M167,93h5.9v1.5h-4.2v1.6h3.7v1.5h-3.7v1.6h4.2v1.5H167V93z"/>
	<path class="st0" d="M174.4,93h1.6l3.6,4.8V93h1.7v7.8h-1.5l-3.8-5v5h-1.7V93z"/>
	<path class="st0" d="M182.9,96.9L182.9,96.9c0-2.2,1.7-4,4.1-4c1.4,0,2.2,0.4,3.1,1.1l-1.1,1.3c-0.6-0.5-1.1-0.8-2-0.8
		c-1.2,0-2.2,1.1-2.2,2.4v0c0,1.4,1,2.5,2.4,2.5c0.6,0,1.2-0.2,1.6-0.5v-1.1h-1.7v-1.5h3.4v3.4c-0.8,0.7-1.9,1.2-3.3,1.2
		C184.6,100.9,182.9,99.2,182.9,96.9z"/>
	<path class="st0" d="M192,93h1.7v7.8H192V93z"/>
	<path class="st0" d="M195.7,93h1.6l3.6,4.8V93h1.7v7.8h-1.5l-3.8-5v5h-1.7V93z"/>
	<path class="st0" d="M204.5,93h5.9v1.5h-4.2v1.6h3.7v1.5h-3.7v1.6h4.2v1.5h-5.9V93z"/>
	<path class="st0" d="M211.9,93h5.9v1.5h-4.2v1.6h3.7v1.5h-3.7v1.6h4.2v1.5h-5.9V93z"/>
	<path class="st0" d="M219.4,93h3.6c1,0,1.8,0.3,2.3,0.8c0.4,0.4,0.7,1,0.7,1.8v0c0,1.3-0.7,2-1.7,2.4l1.9,2.8h-2l-1.7-2.5h-1.3v2.5
		h-1.7V93z M222.8,96.8c0.8,0,1.3-0.4,1.3-1.1v0c0-0.7-0.5-1.1-1.3-1.1h-1.7v2.2H222.8z"/>
	<path class="st0" d="M227.5,93h1.7v7.8h-1.7V93z"/>
	<path class="st0" d="M231.2,93h1.6l3.6,4.8V93h1.7v7.8h-1.5l-3.8-5v5h-1.7V93z"/>
	<path class="st0" d="M239.6,96.9L239.6,96.9c0-2.2,1.7-4,4.1-4c1.4,0,2.2,0.4,3.1,1.1l-1.1,1.3c-0.6-0.5-1.1-0.8-2-0.8
		c-1.2,0-2.2,1.1-2.2,2.4v0c0,1.4,1,2.5,2.4,2.5c0.6,0,1.2-0.2,1.6-0.5v-1.1h-1.7v-1.5h3.4v3.4c-0.8,0.7-1.9,1.2-3.3,1.2
		C241.3,100.9,239.6,99.2,239.6,96.9z"/>
	<path class="st0" d="M256.3,100c-0.6,0.5-1.4,0.9-2.3,0.9c-1.5,0-2.6-0.9-2.6-2.2v0c0-1,0.5-1.7,1.5-2.1c-0.4-0.5-0.5-1-0.5-1.6v0
		c0-1.1,0.9-2,2.4-2c1.3,0,2.2,0.9,2.2,2v0c0,1-0.7,1.7-1.6,2l1,1c0.3-0.4,0.5-0.9,0.8-1.3l1.3,0.7c-0.3,0.5-0.6,1.1-1,1.6l1.1,1.1
		l-1.3,0.9L256.3,100z M255.4,99l-1.5-1.5c-0.5,0.3-0.7,0.6-0.7,1v0c0,0.5,0.5,0.9,1.1,0.9C254.7,99.5,255,99.3,255.4,99z
		 M255.5,94.9L255.5,94.9c0-0.5-0.3-0.7-0.7-0.7c-0.5,0-0.8,0.3-0.8,0.8v0c0,0.3,0.1,0.6,0.5,1C255.1,95.7,255.5,95.4,255.5,94.9z"
		/>
	<path class="st0" d="M265.8,92.9h1.6l3.3,7.8h-1.8l-0.7-1.7h-3.3l-0.7,1.7h-1.7L265.8,92.9z M267.6,97.5l-1-2.5l-1,2.5H267.6z"/>
	<path class="st0" d="M271.9,93h3.6c1,0,1.8,0.3,2.3,0.8c0.4,0.4,0.7,1,0.7,1.8v0c0,1.3-0.7,2-1.7,2.4l1.9,2.8h-2l-1.7-2.5h-1.3v2.5
		h-1.7V93z M275.3,96.8c0.8,0,1.3-0.4,1.3-1.1v0c0-0.7-0.5-1.1-1.3-1.1h-1.7v2.2H275.3z"/>
	<path class="st0" d="M279.6,96.9L279.6,96.9c0-2.2,1.7-4,4.1-4c1.5,0,2.3,0.5,3.1,1.2l-1.1,1.3c-0.6-0.5-1.2-0.9-2-0.9
		c-1.3,0-2.3,1.1-2.3,2.4v0c0,1.3,0.9,2.4,2.3,2.4c0.9,0,1.4-0.4,2-0.9l1.1,1.1c-0.8,0.9-1.7,1.4-3.2,1.4
		C281.3,100.9,279.6,99.1,279.6,96.9z"/>
	<path class="st0" d="M288.1,93h1.7v3.1h3.2V93h1.7v7.8H293v-3.1h-3.2v3.1h-1.7V93z"/>
	<path class="st0" d="M296.7,93h1.7v7.8h-1.7V93z"/>
	<path class="st0" d="M302.1,94.6h-2.4V93h6.5v1.6h-2.4v6.2h-1.7V94.6z"/>
	<path class="st0" d="M307.5,93h5.9v1.5h-4.2v1.6h3.7v1.5h-3.7v1.6h4.2v1.5h-5.9V93z"/>
	<path class="st0" d="M314.6,96.9L314.6,96.9c0-2.2,1.7-4,4.1-4c1.5,0,2.3,0.5,3.1,1.2l-1.1,1.3c-0.6-0.5-1.2-0.9-2-0.9
		c-1.3,0-2.3,1.1-2.3,2.4v0c0,1.3,0.9,2.4,2.3,2.4c0.9,0,1.4-0.4,2-0.9l1.1,1.1c-0.8,0.9-1.7,1.4-3.2,1.4
		C316.3,100.9,314.6,99.1,314.6,96.9z"/>
	<path class="st0" d="M325,94.6h-2.4V93h6.5v1.6h-2.4v6.2H325V94.6z"/>
	<path class="st0" d="M330.3,97.4V93h1.7v4.4c0,1.3,0.6,1.9,1.7,1.9c1,0,1.7-0.6,1.7-1.9V93h1.7v4.4c0,2.4-1.3,3.5-3.4,3.5
		C331.6,100.9,330.3,99.7,330.3,97.4z"/>
	<path class="st0" d="M338.8,93h3.6c1,0,1.8,0.3,2.3,0.8c0.4,0.4,0.7,1,0.7,1.8v0c0,1.3-0.7,2-1.7,2.4l1.9,2.8h-2l-1.7-2.5h-1.3v2.5
		h-1.7V93z M342.3,96.8c0.8,0,1.3-0.4,1.3-1.1v0c0-0.7-0.5-1.1-1.3-1.1h-1.7v2.2H342.3z"/>
	<path class="st0" d="M346.9,93h5.9v1.5h-4.2v1.6h3.7v1.5h-3.7v1.6h4.2v1.5h-5.9V93z"/>
</g>
</svg>
