<svg xmlns="http://www.w3.org/2000/svg" version="1.1" xmlns:xlink="http://www.w3.org/1999/xlink" xmlns:svgjs="http://svgjs.dev/svgjs" width="1000" height="1000" viewBox="0 0 1000 1000"><rect width="1000" height="1000" fill="#ffffff"></rect><g transform="matrix(0.7,0,0,0.7,149.57575779274845,447.43477482987305)"><svg viewBox="0 0 396 60" data-background-color="#ffffff" preserveAspectRatio="xMidYMid meet" height="151" width="1000" xmlns="http://www.w3.org/2000/svg" xmlns:xlink="http://www.w3.org/1999/xlink"><defs></defs><g id="tight-bounds" transform="matrix(1,0,0,1,0.24000012275496374,-0.161650802198551)"><svg viewBox="0 0 395.52 60.32330058307625" height="60.32330058307625" width="395.52"><g><svg viewBox="0 0 564.0993830950238 86.0344271975349" height="60.32330058307625" width="395.52"><g transform="matrix(1,0,0,1,168.57938309502381,11.890430965795346)"><svg viewBox="0 0 395.52 62.253565265944204" height="62.253565265944204" width="395.52"><g><svg viewBox="0 0 395.52 62.253565265944204" height="62.253565265944204" width="395.52"><g><svg viewBox="0 0 395.52 34.46250432775533" height="34.46250432775533" width="395.52"><g transform="matrix(1,0,0,1,0,0)"><svg width="395.52" viewBox="2.5 -37.5 433.20001220703125 37.75" height="34.46250432775533" data-palette-color="#ff1162"><path d="M2.5-34.95L12.55-35Q12.55-34.95 12.6-34.25L12.6-34.25 9.15-33.95 9.15-1 22.95-1 23.95-9 24.9-8.75 24.15 0 12.55 0 2.5 0.05 2.55-0.65 5.15-1Q5.65-1.05 5.75-1.65L5.75-1.65 5.75-33.3Q5.65-33.9 5.15-33.95L5.15-33.95 2.55-34.2 2.5-34.95ZM28.45-28.65L28.45-29.35 28.5-33.05Q28.5-35.1 28.45-35.75L28.45-35.75 27.95-35.75 29.65-35.9Q29.65-34.95 29.6-33.85 29.55-32.75 29.52-31.9 29.5-31.05 29.45-30.33 29.4-29.6 29.35-28.75L29.35-28.75 28.45-28.65ZM39.35-33.95L36.7-34.25 36.75-35 58.15-35 58.1-34.85 58.75-27.8 57.75-27.4 56.95-34 43.35-34 43.35-17.85 55.3-17.85Q55.55-17.8 55.75-17.98 55.95-18.15 55.95-18.45L55.95-18.45 56.15-21.9 56.95-22 56.95-13.45Q56.9-13.45 56.2-13.4L56.2-13.4 56-16.85 43.35-16.85 43.35-1 58.3-1 59.25-9 60.2-8.75 59.45 0 46.75 0 36.7 0.05 36.75-0.65 39.35-1Q39.85-1.05 39.95-1.65L39.95-1.65 39.95-33.3Q39.85-33.9 39.35-33.95L39.35-33.95ZM74.09-0.95L74.09-0.95 76.04-1.05 76.19-0.55Q76.14-0.55 75.49-0.4L75.49-0.4Q73.99-0.05 72.14-0.05L72.14-0.05Q70.44-0.15 69.04-0.63 67.64-1.1 66.44-2.63 65.24-4.15 65.24-6.55L65.24-6.55 65.24-24.1 62.69-24.1 63.09-24.5 65.29-24.95 65.69-29.75 68.49-30 68.49-25 74.54-25 74.54-24.1 68.49-24.1 68.49-7.4Q68.49-3.6 70.09-2.27 71.69-0.95 74.09-0.95ZM82.34-23.95L79.74-24.2 79.69-24.95 86.44-25 86.44-7.6Q86.44-5.65 86.99-4.23 87.54-2.8 88.22-2.15 88.89-1.5 89.79-1.15L89.79-1.15Q91.19-0.65 92.14-0.75L92.14-0.75Q95.19-0.8 99.09-3.9L99.09-3.9 99.09-23.25Q98.89-23.85 98.24-23.95L98.24-23.95 95.64-24.2Q95.59-24.5 95.59-24.95L95.59-24.95 102.34-25 102.34-2.3Q102.44-1.05 103.14-1.05L103.14-1.05 106.14-0.9 106.09-0.15Q103.69 0.25 101.09 0.25L101.09 0.25Q100.49 0.2 99.79-0.43 99.09-1.05 99.09-2L99.09-2 99.09-2.9Q94.54 0.15 90.49 0.15L90.49 0.15Q88.79 0.15 86.49-0.7L86.49-0.7Q84.99-1.25 84.09-2.78 83.19-4.3 83.19-6.6L83.19-6.6 83.19-23.2Q83.19-23.45 82.92-23.68 82.64-23.9 82.34-23.95L82.34-23.95ZM129.24-35.45L129.24-35.45 129.24-2.6Q129.24-1.05 130.04-1.05L130.04-1.05 133.04-0.9 132.99-0.15Q130.59 0.25 127.99 0.25L127.99 0.25Q127.44 0.2 126.81-0.3 126.19-0.8 126.09-1.6L126.09-1.6Q123.24 0.2 119.49 0.2L119.49 0.2Q115.84 0.2 112.74-1.85L112.74-1.85Q110.99-3 109.91-5.48 108.84-7.95 108.84-11.5L108.84-11.5Q108.84-18.05 112.19-21.5L112.19-21.5Q115.74-25.2 120.29-25.2L120.29-25.2Q123.09-25.2 125.99-23.75L125.99-23.75 125.99-35.7Q125.99-36.25 125.69-36.25L125.69-36.25 122.64-36.35 122.69-37.05Q125.84-37.5 127.01-37.5 128.19-37.5 128.71-36.85 129.24-36.2 129.24-35.45ZM120.14-0.7L120.14-0.7Q123.19-0.7 125.99-2.05L125.99-2.05 125.99-22.95Q123.79-24.3 121.64-24.3L121.64-24.3Q117.34-24.3 114.71-21 112.09-17.7 112.09-11.55L112.09-11.55Q112.09-0.7 120.14-0.7ZM143.09-22.95L143.09-22.95 143.09-1 146.84-0.75Q146.84-0.7 146.79 0L146.79 0 136.79 0.05Q136.79-0.4 136.84-0.65L136.84-0.65 139.44-1Q139.74-1 139.84-1.45L139.84-1.45 139.84-23.4Q139.74-23.75 139.54-23.75L139.54-23.75 136.54-23.85 136.59-24.55Q139.29-25 140.69-25 142.09-25 142.59-24.35 143.09-23.7 143.09-22.95ZM141.39-31.7Q140.39-31.7 139.84-32.33 139.29-32.95 139.29-33.98 139.29-35 139.86-35.63 140.44-36.25 141.44-36.25 142.44-36.25 143.06-35.63 143.69-35 143.69-33.93 143.69-32.85 143.04-32.27 142.39-31.7 141.39-31.7ZM166.83-1.9L166.83-1.9 166.68-1.9Q162.18 0.2 157.93 0.2L157.93 0.2Q151.28 0.2 150.88-5.05L150.88-5.05Q150.83-5.4 150.83-5.7L150.83-5.7Q150.83-9.55 155.88-10.85L155.88-10.85Q158.88-11.5 166.68-12.4L166.68-12.4 166.68-16.8Q166.68-18.9 166.18-20.4 165.68-21.9 165.08-22.63 164.48-23.35 163.53-23.75L163.53-23.75Q162.33-24.25 160.86-24.25 159.38-24.25 157.48-23.5L157.48-23.5Q154.73-22.35 152.58-20.6L152.58-20.6 152.38-16.7 151.43-16.45 151.43-22.5 151.93-22.7Q155.83-24.4 157.88-24.75 159.93-25.1 160.88-25.13 161.83-25.15 162.71-25.1 163.58-25.05 164.98-24.65 166.38-24.25 167.41-23.53 168.43-22.8 169.18-21.35 169.93-19.9 169.93-17.9L169.93-17.9 169.93-2.6Q169.93-1.05 170.73-1.05L170.73-1.05 173.78-0.9 173.73-0.15Q170.93 0.25 168.73 0.25L168.73 0.25Q168.13 0.2 167.48-0.38 166.83-0.95 166.83-1.9ZM158.83-0.6L158.83-0.6Q162.53-0.6 166.68-3.2L166.68-3.2 166.68-11.45Q159.18-11.2 157.26-10.58 155.33-9.95 154.61-8.63 153.88-7.3 153.88-6L153.88-6Q153.88-5.75 153.88-5.5L153.88-5.5Q154.03-2.9 155.43-1.75 156.83-0.6 158.83-0.6ZM185.58 0L175.53 0.05 175.58-0.65 178.18-1Q178.63-1.05 178.63-1.7L178.63-1.7 178.63-23.35Q178.53-23.75 178.33-23.75L178.33-23.75 175.28-23.85 175.33-24.55Q178.48-25 179.58-25L179.58-25Q181.58-25 181.83-23.25L181.83-23.25 181.88-23.25 181.88-22.2Q185.98-25 189.73-25.15L189.73-25.15Q193.38-25.15 195.28-23.7L195.28-23.7Q196.13-23.05 196.81-21.68 197.48-20.3 197.48-18.4L197.48-18.4 197.48-1 201.23-0.75Q201.23-0.7 201.18 0L201.18 0 191.18 0.05Q191.18-0.4 191.23-0.65L191.23-0.65 193.83-1Q194.23-1.05 194.23-1.7L194.23-1.7 194.23-17.15Q194.23-19.15 193.71-20.55 193.18-21.95 192.53-22.6 191.88-23.25 190.93-23.6L190.93-23.6Q189.83-24 188.63-24L188.63-24Q185.63-23.95 181.88-21.65L181.88-21.65 181.88-1 185.63-0.75Q185.63-0.7 185.58 0L185.58 0ZM214.68-0.95L214.68-0.95 216.63-1.05 216.78-0.55Q216.73-0.55 216.08-0.4L216.08-0.4Q214.58-0.05 212.73-0.05L212.73-0.05Q211.03-0.15 209.63-0.63 208.23-1.1 207.03-2.63 205.83-4.15 205.83-6.55L205.83-6.55 205.83-24.1 203.28-24.1 203.68-24.5 205.88-24.95 206.28-29.75 209.08-30 209.08-25 215.13-25 215.13-24.1 209.08-24.1 209.08-7.4Q209.08-3.6 210.68-2.27 212.28-0.95 214.68-0.95ZM238.27-33.95L235.62-34.25 235.67-35 242.27-35 254.22-9.65 265.97-35 272.57-35Q272.57-34.9 272.62-34.65 272.67-34.4 272.62-34.25L272.62-34.25 269.97-33.95Q269.47-33.9 269.37-33.3L269.37-33.3 269.37-0.95 273.07-0.75Q273.07-0.7 273.02 0L273.02 0 262.97 0.05 263.02-0.65 265.62-1Q266.12-1.05 266.22-1.6L266.22-1.6 266.22-33.2 254.82-8.55 253.82-6.55 252.67-6.55 240.02-33.25 240.02-1.05 245.72-0.75Q245.72-0.7 245.67 0L245.67 0 235.62 0.05 235.67-0.65 238.27-1Q238.77-1.05 238.87-1.65L238.87-1.65 238.87-33.3Q238.77-33.9 238.27-33.95L238.27-33.95ZM290.82-1.9L290.82-1.9 290.67-1.9Q286.17 0.2 281.92 0.2L281.92 0.2Q275.27 0.2 274.87-5.05L274.87-5.05Q274.82-5.4 274.82-5.7L274.82-5.7Q274.82-9.55 279.87-10.85L279.87-10.85Q282.87-11.5 290.67-12.4L290.67-12.4 290.67-16.8Q290.67-18.9 290.17-20.4 289.67-21.9 289.07-22.63 288.47-23.35 287.52-23.75L287.52-23.75Q286.32-24.25 284.85-24.25 283.37-24.25 281.47-23.5L281.47-23.5Q278.72-22.35 276.57-20.6L276.57-20.6 276.37-16.7 275.42-16.45 275.42-22.5 275.92-22.7Q279.82-24.4 281.87-24.75 283.92-25.1 284.87-25.13 285.82-25.15 286.7-25.1 287.57-25.05 288.97-24.65 290.37-24.25 291.4-23.53 292.42-22.8 293.17-21.35 293.92-19.9 293.92-17.9L293.92-17.9 293.92-2.6Q293.92-1.05 294.72-1.05L294.72-1.05 297.77-0.9 297.72-0.15Q294.92 0.25 292.72 0.25L292.72 0.25Q292.12 0.2 291.47-0.38 290.82-0.95 290.82-1.9ZM282.82-0.6L282.82-0.6Q286.52-0.6 290.67-3.2L290.67-3.2 290.67-11.45Q283.17-11.2 281.25-10.58 279.32-9.95 278.6-8.63 277.87-7.3 277.87-6L277.87-6Q277.87-5.75 277.87-5.5L277.87-5.5Q278.02-2.9 279.42-1.75 280.82-0.6 282.82-0.6ZM305.82-22.95L305.82-22.95 305.82-18.95Q309.77-24.75 313.57-24.85L313.57-24.85Q313.87-24.85 314.17-24.85L314.17-24.85 316.97-24.5 315.67-21.5Q314.72-22.45 313.22-22.45L313.22-22.45Q309.57-22.4 305.82-17.6L305.82-17.6 305.82-1 310.07-0.75Q310.07-0.7 310.02 0L310.02 0 299.52 0.05Q299.52-0.4 299.57-0.65L299.57-0.65 302.17-1Q302.57-1.05 302.57-1.7L302.57-1.7 302.57-23.4Q302.47-23.75 302.27-23.75L302.27-23.75 299.27-23.85 299.32-24.55Q302.02-25 303.42-25 304.82-25 305.32-24.35 305.82-23.7 305.82-22.95ZM329.89 0.2Q324.67 0.2 321.44-2.8 318.22-5.8 318.22-11.98 318.22-18.15 321.64-21.68 325.07-25.2 330.27-25.2 335.47-25.2 338.72-22.2 341.97-19.2 341.97-13.03 341.97-6.85 338.54-3.33 335.12 0.2 329.89 0.2ZM330.22-24.3Q326.47-24.3 323.97-21.05 321.47-17.8 321.47-12.23 321.47-6.65 323.84-3.68 326.22-0.7 329.97-0.7 333.72-0.7 336.22-3.95 338.72-7.2 338.72-12.75 338.72-18.3 336.34-21.3 333.97-24.3 330.22-24.3ZM359.21-24.3L359.21-24.3Q354.96-24.3 352.34-20.98 349.71-17.65 349.71-11.55L349.71-11.55Q349.71-0.7 357.96-0.7L357.96-0.7Q361.21-0.7 363.51-1.33 365.81-1.95 366.01-2.1L366.01-2.1 366.36-1.55Q365.21-0.8 362.56-0.3 359.91 0.2 357.76 0.2 355.61 0.2 353.86-0.25 352.11-0.7 350.34-1.85 348.56-3 347.51-5.48 346.46-7.95 346.46-11.5L346.46-11.5Q346.46-18.05 349.81-21.4L349.81-21.4Q353.56-25.25 359.26-25.25L359.26-25.25Q361.06-25.25 363.09-24.78 365.11-24.3 366.21-23.3L366.21-23.3 366.21-16.75 365.26-16.4 365.01-21.65Q363.91-22.8 362.34-23.55 360.76-24.3 359.21-24.3ZM387.51-1.9L387.51-1.9 387.36-1.9Q382.86 0.2 378.61 0.2L378.61 0.2Q371.96 0.2 371.56-5.05L371.56-5.05Q371.51-5.4 371.51-5.7L371.51-5.7Q371.51-9.55 376.56-10.85L376.56-10.85Q379.56-11.5 387.36-12.4L387.36-12.4 387.36-16.8Q387.36-18.9 386.86-20.4 386.36-21.9 385.76-22.63 385.16-23.35 384.21-23.75L384.21-23.75Q383.01-24.25 381.53-24.25 380.06-24.25 378.16-23.5L378.16-23.5Q375.41-22.35 373.26-20.6L373.26-20.6 373.06-16.7 372.11-16.45 372.11-22.5 372.61-22.7Q376.51-24.4 378.56-24.75 380.61-25.1 381.56-25.13 382.51-25.15 383.38-25.1 384.26-25.05 385.66-24.65 387.06-24.25 388.08-23.53 389.11-22.8 389.86-21.35 390.61-19.9 390.61-17.9L390.61-17.9 390.61-2.6Q390.61-1.05 391.41-1.05L391.41-1.05 394.46-0.9 394.41-0.15Q391.61 0.25 389.41 0.25L389.41 0.25Q388.81 0.2 388.16-0.38 387.51-0.95 387.51-1.9ZM379.51-0.6L379.51-0.6Q383.21-0.6 387.36-3.2L387.36-3.2 387.36-11.45Q379.86-11.2 377.94-10.58 376.01-9.95 375.28-8.63 374.56-7.3 374.56-6L374.56-6Q374.56-5.75 374.56-5.5L374.56-5.5Q374.71-2.9 376.11-1.75 377.51-0.6 379.51-0.6ZM403.01-22.95L403.01-22.95 403.01-1 406.76-0.75Q406.76-0.7 406.71 0L406.71 0 396.71 0.05Q396.71-0.4 396.76-0.65L396.76-0.65 399.36-1Q399.66-1 399.76-1.45L399.76-1.45 399.76-23.4Q399.66-23.75 399.46-23.75L399.46-23.75 396.46-23.85 396.51-24.55Q399.21-25 400.61-25 402.01-25 402.51-24.35 403.01-23.7 403.01-22.95ZM401.31-31.7Q400.31-31.7 399.76-32.33 399.21-32.95 399.21-33.98 399.21-35 399.78-35.63 400.36-36.25 401.36-36.25 402.36-36.25 402.98-35.63 403.61-35 403.61-33.93 403.61-32.85 402.96-32.27 402.31-31.7 401.31-31.7ZM420.06 0L410 0.05 410.06-0.65 412.65-1Q413.11-1.05 413.11-1.7L413.11-1.7 413.11-23.35Q413-23.75 412.81-23.75L412.81-23.75 409.75-23.85 409.81-24.55Q412.95-25 414.06-25L414.06-25Q416.06-25 416.31-23.25L416.31-23.25 416.36-23.25 416.36-22.2Q420.45-25 424.2-25.15L424.2-25.15Q427.86-25.15 429.75-23.7L429.75-23.7Q430.61-23.05 431.28-21.68 431.95-20.3 431.95-18.4L431.95-18.4 431.95-1 435.7-0.75Q435.7-0.7 435.65 0L435.65 0 425.65 0.05Q425.65-0.4 425.7-0.65L425.7-0.65 428.31-1Q428.7-1.05 428.7-1.7L428.7-1.7 428.7-17.15Q428.7-19.15 428.18-20.55 427.65-21.95 427-22.6 426.36-23.25 425.4-23.6L425.4-23.6Q424.31-24 423.11-24L423.11-24Q420.11-23.95 416.36-21.65L416.36-21.65 416.36-1 420.11-0.75Q420.11-0.7 420.06 0L420.06 0Z" opacity="1" transform="matrix(1,0,0,1,0,0)" fill="#000000" class="undefined-text-0" data-fill-palette-color="primary" id="text-0"></path></svg></g></svg></g><g transform="matrix(1,0,0,1,0,42.5982744994345)"><svg viewBox="0 0 232.209792 19.655290766509705" height="19.655290766509705" width="232.209792"><g transform="matrix(1,0,0,1,0,0)"><svg width="232.209792" viewBox="2.5999999046325684 -36.04999923706055 435.29998779296875 36.849998474121094" height="19.655290766509705" data-palette-color="#ff1162"><path d="M26.3-3.4Q24.85-1.8 22.73-0.85 20.6 0.1 18.35 0.1L18.35 0.1Q13.1 0.1 10.25-4.42 7.4-8.95 7.4-17.25L7.4-17.25Q7.4-25.6 10.25-30.15 13.1-34.7 18.4-34.7L18.4-34.7Q21.3-34.7 23.7-33.38 26.1-32.05 27.6-29.6L27.6-29.6Q29.1-27.1 29.8-23.25L29.8-23.25 30.5-23.45 30-34.7 29.35-34.7 28.15-32.3Q25.25-33.85 22.88-34.58 20.5-35.3 18.25-35.3L18.25-35.3Q13.95-35.3 10.35-32.9 6.75-30.5 4.67-26.35 2.6-22.2 2.6-17.25L2.6-17.25Q2.6-12.25 4.67-8.13 6.75-4 10.38-1.6 14 0.8 18.35 0.8L18.35 0.8Q20.8 0.8 23.43-0.15 26.05-1.1 28.3-2.75L28.3-2.75 30 0 30.65 0 30.65-11.5 30-11.6Q28.75-6.15 26.3-3.4L26.3-3.4ZM45.25-21.7Q48.15-21.7 50.4-20.3 52.65-18.9 53.9-16.38 55.15-13.85 55.15-10.6L55.15-10.6Q55.15-7.35 53.9-4.83 52.65-2.3 50.4-0.9 48.15 0.5 45.25 0.5L45.25 0.5Q42.35 0.5 40.1-0.9 37.85-2.3 36.6-4.83 35.35-7.35 35.35-10.6L35.35-10.6Q35.35-13.85 36.6-16.38 37.85-18.9 40.1-20.3 42.35-21.7 45.25-21.7L45.25-21.7ZM39.05-10.6Q39.05-5.6 40.7-2.8 42.35 0 45.25 0L45.25 0Q48.15 0 49.8-2.8 51.45-5.6 51.45-10.6L51.45-10.6Q51.45-15.6 49.8-18.4 48.15-21.2 45.25-21.2L45.25-21.2Q42.35-21.2 40.7-18.4 39.05-15.6 39.05-10.6L39.05-10.6ZM76.45-0.8L79.45-0.4 79.45 0 70.15 0 70.15-0.4 73.2-0.8 73.2-13.55Q73.2-15.5 73.1-16.45 73-17.4 72.7-18.05L72.7-18.05Q72.3-18.9 71.37-19.38 70.45-19.85 69.25-19.85L69.25-19.85Q66.7-19.85 64.7-17.7L64.7-17.7 64.7-0.8 67.75-0.4 67.75 0 58.4 0 58.4-0.4 61.45-0.8 61.45-18.05 58.5-19.15 58.5-19.5 64.15-21.45 64.55-21.45 64.55-18.3Q67.75-21.7 71.25-21.7L71.25-21.7Q72.8-21.7 74.07-21.03 75.35-20.35 75.9-19.25L75.9-19.25Q76.25-18.6 76.35-17.48 76.45-16.35 76.45-13.55L76.45-13.55 76.45-0.8ZM89.99-21.7Q86.49-21.7 84.57-20.15 82.64-18.6 82.64-15.8L82.64-15.8Q82.64-14.05 83.34-12.9 84.04-11.75 85.07-11.08 86.09-10.4 87.79-9.55L87.79-9.55Q90.09-8.45 91.24-7.4 92.39-6.35 92.39-4.3L92.39-4.3Q92.39-2.4 91.29-1.23 90.19-0.05 88.34-0.05L88.34-0.05Q86.29-0.05 85.02-1.73 83.74-3.4 83.24-6.9L83.24-6.9 82.64-6.9 82.89-0.4Q83.94 0 85.44 0.25 86.94 0.5 88.14 0.5L88.14 0.5Q91.44 0.5 93.39-1.28 95.34-3.05 95.34-6.1L95.34-6.1Q95.34-7.95 94.62-9.15 93.89-10.35 92.87-11.03 91.84-11.7 90.09-12.5L90.09-12.5Q87.84-13.55 86.74-14.53 85.64-15.5 85.64-17.4L85.64-17.4Q85.64-19.1 86.64-20.13 87.64-21.15 89.29-21.15L89.29-21.15Q91.09-21.15 92.17-19.8 93.24-18.45 93.94-15.45L93.94-15.45 94.49-15.45 94.49-21Q93.69-21.3 92.44-21.5 91.19-21.7 89.99-21.7L89.99-21.7ZM115.94-5.1L116.39-5.7 116.59-5.6 116.39-5.05Q115.39-2.4 113.42-0.95 111.44 0.5 108.69 0.5L108.69 0.5Q105.99 0.5 103.89-0.9 101.79-2.3 100.62-4.8 99.44-7.3 99.44-10.55L99.44-10.55Q99.44-13.8 100.69-16.35 101.94-18.9 104.24-20.3 106.54-21.7 109.49-21.7L109.49-21.7Q112.99-21.7 114.87-19.63 116.74-17.55 116.79-13.6L116.79-13.6 116.49-13.35 102.99-13.35Q102.89-12.05 102.89-11.3L102.89-11.3Q102.89-6.75 104.74-4.38 106.59-2 109.89-2L109.89-2Q111.59-2 113.17-2.78 114.74-3.55 115.94-5.1L115.94-5.1ZM108.94-21.15Q106.59-21.15 105.04-19.2 103.49-17.25 103.04-13.9L103.04-13.9 112.74-14.25Q112.89-14.85 112.89-16.25L112.89-16.25Q112.89-18.95 111.87-20.05 110.84-21.15 108.94-21.15L108.94-21.15ZM121.84-28.9Q121.84-29.95 122.51-30.63 123.19-31.3 124.24-31.3L124.24-31.3Q125.29-31.3 125.96-30.63 126.64-29.95 126.64-28.9L126.64-28.9Q126.64-27.85 125.96-27.18 125.29-26.5 124.24-26.5L124.24-26.5Q123.19-26.5 122.51-27.18 121.84-27.85 121.84-28.9L121.84-28.9ZM126.14-0.8L126.14-21.7 125.74-21.7 119.94-19.75 119.94-19.4 122.89-18.3 122.89-0.8 119.84-0.4 119.84 0 129.19 0 129.19-0.4 126.14-0.8ZM137.24-0.8L137.24-36.05 136.84-36.05 131.04-34.1 131.04-33.75 133.99-32.65 133.99-0.8 130.94-0.4 130.94 0 140.29 0 140.29-0.4 137.24-0.8ZM150.93-21.7Q147.43-21.7 145.51-20.15 143.58-18.6 143.58-15.8L143.58-15.8Q143.58-14.05 144.28-12.9 144.98-11.75 146.01-11.08 147.03-10.4 148.73-9.55L148.73-9.55Q151.03-8.45 152.18-7.4 153.33-6.35 153.33-4.3L153.33-4.3Q153.33-2.4 152.23-1.23 151.13-0.05 149.28-0.05L149.28-0.05Q147.23-0.05 145.96-1.73 144.68-3.4 144.18-6.9L144.18-6.9 143.58-6.9 143.83-0.4Q144.88 0 146.38 0.25 147.88 0.5 149.08 0.5L149.08 0.5Q152.38 0.5 154.33-1.28 156.28-3.05 156.28-6.1L156.28-6.1Q156.28-7.95 155.56-9.15 154.83-10.35 153.81-11.03 152.78-11.7 151.03-12.5L151.03-12.5Q148.78-13.55 147.68-14.53 146.58-15.5 146.58-17.4L146.58-17.4Q146.58-19.1 147.58-20.13 148.58-21.15 150.23-21.15L150.23-21.15Q152.03-21.15 153.11-19.8 154.18-18.45 154.88-15.45L154.88-15.45 155.43-15.45 155.43-21Q154.63-21.3 153.38-21.5 152.13-21.7 150.93-21.7L150.93-21.7ZM197.58-10.55L198.13-10.5 196.88 0 172.38 0 172.38-0.4 176.48-0.8 176.48-33.7 172.38-34.1 172.38-34.5 196.93-34.5 197.63-25.1 197.13-25.05 194.33-32.05Q193.88-33.2 193.35-33.55 192.83-33.9 191.63-33.9L191.63-33.9 180.33-33.9 180.33-18.55 187.73-18.55Q188.93-18.55 189.43-18.95 189.93-19.35 190.13-20.5L190.13-20.5 190.98-24.55 191.58-24.55 191.58-11.75 190.98-11.75 190.13-15.8Q189.93-16.95 189.43-17.35 188.93-17.75 187.73-17.75L187.73-17.75 180.33-17.75 180.33-0.6 191.53-0.6Q192.73-0.6 193.28-0.98 193.83-1.35 194.28-2.45L194.28-2.45 197.58-10.55ZM207.18-26L201.68-20.7 201.78-20.45 204.13-20.45 204.13-4.45Q204.13-2.9 204.48-1.95 204.83-1 205.68-0.4L205.68-0.4Q206.93 0.5 208.53 0.5L208.53 0.5Q210.08 0.5 211.45-0.4 212.83-1.3 213.58-2.85L213.58-2.85 213.38-3Q212.48-2.1 211.73-1.7 210.98-1.3 210.18-1.3L210.18-1.3Q208.53-1.3 207.93-2.5L207.93-2.5Q207.38-3.35 207.38-5.1L207.38-5.1 207.38-20.4 212.78-20.4 213.08-21.2 207.38-21.2 207.38-25.95 207.18-26ZM244.22-35.3Q248.57-35.3 252.2-32.9 255.82-30.5 257.9-26.38 259.97-22.25 259.97-17.25L259.97-17.25Q259.97-12.25 257.9-8.13 255.82-4 252.2-1.6 248.57 0.8 244.22 0.8L244.22 0.8Q239.87 0.8 236.25-1.6 232.62-4 230.55-8.13 228.47-12.25 228.47-17.25L228.47-17.25Q228.47-22.25 230.55-26.38 232.62-30.5 236.25-32.9 239.87-35.3 244.22-35.3L244.22-35.3ZM233.27-17.25Q233.27-8.9 236.12-4.38 238.97 0.15 244.22 0.15L244.22 0.15Q249.47 0.15 252.32-4.38 255.17-8.9 255.17-17.25L255.17-17.25Q255.17-25.6 252.32-30.15 249.47-34.7 244.22-34.7L244.22-34.7Q238.97-34.7 236.12-30.15 233.27-25.6 233.27-17.25L233.27-17.25ZM275.22-21.7Q276.22-21.7 276.92-21.03 277.62-20.35 277.62-19.4L277.62-19.4Q277.62-18.6 277.07-18.05 276.52-17.5 275.72-17.5L275.72-17.5Q275.22-17.5 274.89-17.73 274.57-17.95 274.22-18.4L274.22-18.4Q273.87-18.8 273.59-19 273.32-19.2 272.92-19.2L272.92-19.2Q272.12-19.2 271.29-18.25 270.47-17.3 270.12-16.05L270.12-16.05 270.12-0.8 274.12-0.4 274.12 0 263.82 0 263.82-0.4 266.87-0.8 266.87-18.3 263.92-19.4 263.92-19.75 269.57-21.7 269.97-21.7 269.97-17.3Q272.77-21.7 275.22-21.7L275.22-21.7ZM281.57-28.9Q281.57-29.95 282.24-30.63 282.92-31.3 283.97-31.3L283.97-31.3Q285.02-31.3 285.69-30.63 286.37-29.95 286.37-28.9L286.37-28.9Q286.37-27.85 285.69-27.18 285.02-26.5 283.97-26.5L283.97-26.5Q282.92-26.5 282.24-27.18 281.57-27.85 281.57-28.9L281.57-28.9ZM285.87-0.8L285.87-21.7 285.47-21.7 279.67-19.75 279.67-19.4 282.62-18.3 282.62-0.8 279.57-0.4 279.57 0 288.92 0 288.92-0.4 285.87-0.8ZM308.26-5.1L308.71-5.7 308.91-5.6 308.71-5.05Q307.71-2.4 305.74-0.95 303.76 0.5 301.01 0.5L301.01 0.5Q298.31 0.5 296.21-0.9 294.11-2.3 292.94-4.8 291.76-7.3 291.76-10.55L291.76-10.55Q291.76-13.8 293.01-16.35 294.26-18.9 296.56-20.3 298.86-21.7 301.81-21.7L301.81-21.7Q305.31-21.7 307.19-19.63 309.06-17.55 309.11-13.6L309.11-13.6 308.81-13.35 295.31-13.35Q295.21-12.05 295.21-11.3L295.21-11.3Q295.21-6.75 297.06-4.38 298.91-2 302.21-2L302.21-2Q303.91-2 305.49-2.78 307.06-3.55 308.26-5.1L308.26-5.1ZM301.26-21.15Q298.91-21.15 297.36-19.2 295.81-17.25 295.36-13.9L295.36-13.9 305.06-14.25Q305.21-14.85 305.21-16.25L305.21-16.25Q305.21-18.95 304.19-20.05 303.16-21.15 301.26-21.15L301.26-21.15ZM330.21-0.8L333.21-0.4 333.21 0 323.91 0 323.91-0.4 326.96-0.8 326.96-13.55Q326.96-15.5 326.86-16.45 326.76-17.4 326.46-18.05L326.46-18.05Q326.06-18.9 325.14-19.38 324.21-19.85 323.01-19.85L323.01-19.85Q320.46-19.85 318.46-17.7L318.46-17.7 318.46-0.8 321.51-0.4 321.51 0 312.16 0 312.16-0.4 315.21-0.8 315.21-18.05 312.26-19.15 312.26-19.5 317.91-21.45 318.31-21.45 318.31-18.3Q321.51-21.7 325.01-21.7L325.01-21.7Q326.56-21.7 327.84-21.03 329.11-20.35 329.66-19.25L329.66-19.25Q330.01-18.6 330.11-17.48 330.21-16.35 330.21-13.55L330.21-13.55 330.21-0.8ZM340.71-26L335.21-20.7 335.31-20.45 337.66-20.45 337.66-4.45Q337.66-2.9 338.01-1.95 338.36-1 339.21-0.4L339.21-0.4Q340.46 0.5 342.06 0.5L342.06 0.5Q343.61 0.5 344.98-0.4 346.36-1.3 347.11-2.85L347.11-2.85 346.91-3Q346.01-2.1 345.26-1.7 344.51-1.3 343.71-1.3L343.71-1.3Q342.06-1.3 341.46-2.5L341.46-2.5Q340.91-3.35 340.91-5.1L340.91-5.1 340.91-20.4 346.31-20.4 346.61-21.2 340.91-21.2 340.91-25.95 340.71-26ZM353.91 0.35Q352.01 0.35 350.78-0.98 349.56-2.3 349.56-4.4L349.56-4.4Q349.56-6.9 351.83-8.4 354.11-9.9 359.56-11L359.56-11 359.56-15.55Q359.56-18.45 358.91-19.58 358.26-20.7 356.66-20.7L356.66-20.7Q355.11-20.7 354.16-19.88 353.21-19.05 353.21-17.65L353.21-17.65 353.26-16.3Q353.26-15.05 352.78-14.33 352.31-13.6 351.46-13.6L351.46-13.6Q350.71-13.6 350.23-14.1 349.76-14.6 349.76-15.4L349.76-15.4Q349.76-16.6 350.93-18.03 352.11-19.45 353.96-20.4L353.96-20.4Q356.21-21.65 358.61-21.65L358.61-21.65Q360.01-21.65 360.98-21.1 361.96-20.55 362.41-19.55L362.41-19.55Q362.66-18.9 362.73-17.95 362.81-17 362.81-14.3L362.81-14.3 362.81-4.75Q362.81-2.95 363.16-2.27 363.51-1.6 364.41-1.6L364.41-1.6Q365.76-1.6 366.41-2.55L366.41-2.55 366.61-2.45Q366.01-1.2 365.01-0.53 364.01 0.15 362.86 0.15L362.86 0.15Q361.56 0.15 360.71-0.63 359.86-1.4 359.76-2.7L359.76-2.7 359.61-2.75Q358.46-1.3 356.96-0.48 355.46 0.35 353.91 0.35L353.91 0.35ZM356.06-1.55Q357.11-1.55 358.03-2.02 358.96-2.5 359.56-3.4L359.56-3.4 359.56-10.45Q356.96-9.8 355.53-9.15 354.11-8.5 353.51-7.6 352.91-6.7 352.91-5.35L352.91-5.35Q352.91-3.6 353.76-2.58 354.61-1.55 356.06-1.55L356.06-1.55ZM373.65-26L368.15-20.7 368.25-20.45 370.6-20.45 370.6-4.45Q370.6-2.9 370.95-1.95 371.3-1 372.15-0.4L372.15-0.4Q373.4 0.5 375 0.5L375 0.5Q376.55 0.5 377.93-0.4 379.3-1.3 380.05-2.85L380.05-2.85 379.85-3Q378.95-2.1 378.2-1.7 377.45-1.3 376.65-1.3L376.65-1.3Q375-1.3 374.4-2.5L374.4-2.5Q373.85-3.35 373.85-5.1L373.85-5.1 373.85-20.4 379.25-20.4 379.55-21.2 373.85-21.2 373.85-25.95 373.65-26ZM383.6-28.9Q383.6-29.95 384.28-30.63 384.95-31.3 386-31.3L386-31.3Q387.05-31.3 387.73-30.63 388.4-29.95 388.4-28.9L388.4-28.9Q388.4-27.85 387.73-27.18 387.05-26.5 386-26.5L386-26.5Q384.95-26.5 384.28-27.18 383.6-27.85 383.6-28.9L383.6-28.9ZM387.9-0.8L387.9-21.7 387.5-21.7 381.7-19.75 381.7-19.4 384.65-18.3 384.65-0.8 381.6-0.4 381.6 0 390.95 0 390.95-0.4 387.9-0.8ZM403.7-21.7Q406.6-21.7 408.85-20.3 411.1-18.9 412.35-16.38 413.6-13.85 413.6-10.6L413.6-10.6Q413.6-7.35 412.35-4.83 411.1-2.3 408.85-0.9 406.6 0.5 403.7 0.5L403.7 0.5Q400.8 0.5 398.55-0.9 396.3-2.3 395.05-4.83 393.8-7.35 393.8-10.6L393.8-10.6Q393.8-13.85 395.05-16.38 396.3-18.9 398.55-20.3 400.8-21.7 403.7-21.7L403.7-21.7ZM397.5-10.6Q397.5-5.6 399.15-2.8 400.8 0 403.7 0L403.7 0Q406.6 0 408.25-2.8 409.9-5.6 409.9-10.6L409.9-10.6Q409.9-15.6 408.25-18.4 406.6-21.2 403.7-21.2L403.7-21.2Q400.8-21.2 399.15-18.4 397.5-15.6 397.5-10.6L397.5-10.6ZM434.9-0.8L437.9-0.4 437.9 0 428.6 0 428.6-0.4 431.65-0.8 431.65-13.55Q431.65-15.5 431.55-16.45 431.45-17.4 431.15-18.05L431.15-18.05Q430.75-18.9 429.82-19.38 428.9-19.85 427.7-19.85L427.7-19.85Q425.15-19.85 423.15-17.7L423.15-17.7 423.15-0.8 426.2-0.4 426.2 0 416.85 0 416.85-0.4 419.9-0.8 419.9-18.05 416.95-19.15 416.95-19.5 422.6-21.45 423-21.45 423-18.3Q426.2-21.7 429.7-21.7L429.7-21.7Q431.25-21.7 432.52-21.03 433.8-20.35 434.35-19.25L434.35-19.25Q434.7-18.6 434.8-17.48 434.9-16.35 434.9-13.55L434.9-13.55 434.9-0.8Z" opacity="1" transform="matrix(1,0,0,1,0,0)" fill="#000000" class="undefined-text-1" data-fill-palette-color="secondary" id="text-1"></path></svg></g></svg></g></svg></g></svg></g><g><svg viewBox="0 0 160.44361292334466 86.0344271975349" height="86.0344271975349" width="160.44361292334466"><g><svg xmlns="http://www.w3.org/2000/svg" xmlns:xlink="http://www.w3.org/1999/xlink" version="1.1" x="0" y="0" viewBox="6.300000190734863 26.567249298095703 87.39698791503906 46.864749908447266" enable-background="new 0 0 100 100" xml:space="preserve" height="86.0344271975349" width="160.44361292334466" class="icon-icon-0" data-fill-palette-color="accent" id="icon-0"><path d="M90.674 48.656v-7.934c0.421-0.271 0.691-0.736 0.691-1.256 0-0.674-0.449-1.265-1.098-1.445L49.234 26.622c-0.262-0.073-0.539-0.073-0.803 0L7.399 38.021c-0.649 0.181-1.099 0.771-1.099 1.445s0.449 1.265 1.099 1.445l16.204 4.501v18.772c0 0.806 0.636 1.467 1.439 1.499 3.021 0.121 6.105 0.568 9.17 1.329 5.254 1.307 10.063 3.478 13.543 6.115 0.26 0.197 0.578 0.305 0.906 0.305h0.42c0.328 0 0.646-0.107 0.906-0.305 3.479-2.638 8.289-4.809 13.543-6.115 3.064-0.761 6.148-1.208 9.17-1.329 0.804-0.032 1.439-0.693 1.439-1.499V45.391l13.533-3.76v7.043c-1.715 0.569-2.963 2.18-2.963 4.094v7.671h8.988v-7.671C93.699 50.832 92.42 49.207 90.674 48.656zM48.834 29.624l29.508 8.197H49.943c-0.828 0-1.5 0.671-1.5 1.5s0.672 1.5 1.5 1.5h29.439l-30.549 8.487-35.429-9.842L48.834 29.624zM71.141 62.767c-2.76 0.197-5.557 0.645-8.333 1.336-5.383 1.337-10.181 3.447-13.936 6.123-3.755-2.676-8.553-4.786-13.937-6.123-2.775-0.691-5.572-1.139-8.332-1.336V46.246l21.828 6.064c0.132 0.036 0.267 0.055 0.402 0.055 0.135 0 0.27-0.019 0.4-0.055l21.906-6.085V62.767zM90.699 57.439h-2.988v-4.671c0-0.734 0.583-1.33 1.301-1.33h0.387c0.717 0 1.301 0.596 1.301 1.33V57.439z" fill="#000000" data-fill-palette-color="accent"></path></svg></g></svg></g></svg></g></svg><rect width="395.52" height="60.32330058307625" fill="none" stroke="none" visibility="hidden"></rect></g></svg></g></svg>